<?xml version="1.0" encoding="utf-8"?>
<!-- Generated by IcoMoon.io -->
<!DOCTYPE svg PUBLIC "-//W3C//DTD SVG 1.1//EN" "http://www.w3.org/Graphics/SVG/1.1/DTD/svg11.dtd">
<svg version="1.1" xmlns="http://www.w3.org/2000/svg" xmlns:xlink="http://www.w3.org/1999/xlink" width="236" height="512" viewBox="0 0 236 512"><g id="icomoon-ignore">
</g>
<path d="M51.061 103.821c0 12.757 0 69.696 0 69.696h-51.061v85.226h51.061v253.252h104.889v-253.252h70.388c0 0 6.592-40.863 9.781-85.546-9.162 0-79.775 0-79.775 0s0-49.582 0-58.272c0-8.707 11.435-20.424 22.74-20.424 11.283 0 35.098 0 57.147 0 0-11.604 0-51.697 0-88.724-29.44 0-62.929 0-77.7 0-110.064 0-107.471 85.305-107.471 98.044z" fill="#000000"></path>
</svg>
