<?xml version="1.0" encoding="utf-8"?>
<svg version="1.1" id="Layer_1" xmlns="http://www.w3.org/2000/svg" xmlns:xlink="http://www.w3.org/1999/xlink" x="0px" y="0px"
	 viewBox="0 0 155.7 158.8" enable-background="new 0 0 155.7 158.8" xml:space="preserve">
<g>
	<path fill-rule="evenodd" clip-rule="evenodd" d="M99.1,0.1c0,0-34.3-0.4-48.3,0.4c-0.7,0-1.4,0.1-2.1,0.1
		c-62.3,4.9-45,84.3,0,70.9h0l0,0c-0.6,4.4-0.6,8.3,0,11.7c0.7,3.7,2.1,6.8,4.2,9.3c-1.4-0.4-2.8-0.8-4.2-1
		c-41.8-7.2-84.6,63.6,0,67.2c0.6,0,1.3,0.1,1.9,0.1c39.7-1.5,71.6-45.6,21.9-76.5c-8.1-5.1-11.4-10.4-0.4-16.4
		C96.9,53.7,95.2,20.5,77,9.2C94.9,7.8,99.1,0.1,99.1,0.1z M81.7,121.7c0.7,12.3-13.2,22.9-31,23.8c-0.7,0-1.4,0.1-2,0.1
		c-17,0.1-30.9-8.9-31.6-20.6c-0.7-12.3,13.2-22.9,31-23.8l0.6,0C66.3,100.4,81,109.6,81.7,121.7z M56.3,65.1
		c-2.5,0.7-5.1,0.7-7.7,0.3c-9.4-1.7-18.1-10.7-21.5-23.1C23,26.5,29.2,11.1,41,7.9c2.5-0.7,5.1-0.7,7.7-0.3
		C58,9.4,66.8,18.3,70.1,30.7C74.4,46.5,68.2,61.9,56.3,65.1z"/>
	<polygon fill-rule="evenodd" clip-rule="evenodd" points="133.7,66.4 133.7,44.3 123.8,44.3 123.8,66.4 101.8,66.4 101.8,76.3
		123.8,76.3 123.8,98.3 133.7,98.3 133.7,76.3 155.7,76.3 155.7,66.4 	"/>
</g>
</svg>
