<?xml version="1.0" encoding="utf-8"?>
<!DOCTYPE svg PUBLIC "-//W3C//DTD SVG 1.1//EN" "http://www.w3.org/Graphics/SVG/1.1/DTD/svg11.dtd">
<svg version="1.1" xmlns="http://www.w3.org/2000/svg" xmlns:xlink="http://www.w3.org/1999/xlink" width="515" height="512" viewBox="0 0 515 512"><g id="icomoon-ignore">
</g>
<path d="M477.502 6.223h-438.219c-16.401 0-29.698 13.297-29.698 29.698v438.219c0 16.401 13.297 29.698 29.698 29.698h438.219c16.401 0 29.698-13.298 29.698-29.698v-438.219c0-16.401-13.298-29.698-29.698-29.698zM194.881 197.407c15.547-17.613 38.22-28.803 63.511-28.803 25.265 0 47.938 11.19 63.502 28.803 13.189 14.953 21.26 34.507 21.26 55.958 0 46.734-38.028 84.762-84.762 84.762-46.743 0-84.77-38.028-84.77-84.762 0-21.444 8.071-41.005 21.26-55.959zM454.812 451.45h-392.849v-254.043h71.339c-7.677 17.119-12.060 36.020-12.060 55.959 0 75.629 61.529 137.141 137.149 137.141s137.141-61.512 137.141-137.141c0-19.938-4.382-38.847-12.060-55.958h71.339v254.043zM454.812 113.757c0 13.198-10.697 23.894-23.902 23.894h-31.22c-13.214 0-23.911-10.697-23.911-23.894v-31.254c0-13.198 10.697-23.894 23.911-23.894h31.22c13.206 0 23.902 10.697 23.902 23.894v31.254z" fill="#000000"></path>
</svg>
