<?xml version="1.0" encoding="utf-8"?>
<!-- Generator: Adobe Illustrator 18.1.1, SVG Export Plug-In . SVG Version: 6.00 Build 0)  -->
<svg version="1.1" id="Calque_1" xmlns="http://www.w3.org/2000/svg" xmlns:xlink="http://www.w3.org/1999/xlink" x="0px" y="0px"
	 viewBox="0 0 22 21.2" enable-background="new 0 0 22 21.2" xml:space="preserve">
<g>
	<rect x="0.3" y="6.9" width="4.7" height="14.3"/>
	<path d="M16.6,6.6c-2.5,0-3.6,1.4-4.3,2.4v0h0c0,0,0,0,0,0v-2H7.6c0.1,1.3,0,14.3,0,14.3h4.7v-8c0-0.4,0-0.9,0.2-1.2
		c0.3-0.9,1.1-1.7,2.4-1.7c1.7,0,2.4,1.3,2.4,3.2v7.7H22V13C22,8.6,19.7,6.6,16.6,6.6z"/>
	<path d="M2.7,0C1.1,0,0,1.1,0,2.5C0,3.9,1,5,2.6,5h0c1.6,0,2.7-1.1,2.7-2.5C5.3,1.1,4.3,0,2.7,0z"/>
</g>
</svg>
