<?xml version="1.0" encoding="utf-8"?>
<!-- Generator: Adobe Illustrator 19.2.1, SVG Export Plug-In . SVG Version: 6.00 Build 0)  -->
<svg version="1.1" id="Capa_1" xmlns="http://www.w3.org/2000/svg" xmlns:xlink="http://www.w3.org/1999/xlink" x="0px" y="0px"
	 viewBox="0 0 17 17" style="enable-background:new 0 0 17 17;" xml:space="preserve">
<path d="M5.1,16.3c0-0.6,0-1.3,0.1-2c0.2-0.7,1.1-4.6,1.1-4.6S6.1,9.2,6.1,8.4c0-1.3,0.7-2.2,1.6-2.2c0.8,0,1.1,0.6,1.1,1.3
	c0,0.8-0.5,1.9-0.8,3c-0.2,0.9,0.5,1.6,1.3,1.6c1.6,0,2.7-2.1,2.7-4.5c0-1.9-1.3-3.3-3.5-3.3C6,4.3,4.4,6.2,4.4,8.4
	c0,0.7,0.2,1.3,0.6,1.7c0.2,0.2,0.2,0.3,0.1,0.5c0,0.2-0.1,0.5-0.2,0.7c-0.1,0.2-0.2,0.3-0.4,0.2c-1.2-0.5-1.7-1.8-1.7-3.2
	c0-2.4,2-5.3,6.1-5.3c3.2,0,5.4,2.4,5.4,4.9c0,3.3-1.9,5.8-4.6,5.8c-0.9,0-1.8-0.5-2.1-1.1c0,0-0.5,2-0.6,2.3
	c-0.2,0.7-0.5,1.3-0.9,1.8C6.9,16.9,7.7,17,8.5,17c4.7,0,8.5-3.8,8.5-8.5C17,3.8,13.2,0,8.5,0C3.8,0,0,3.8,0,8.5
	C0,12,2.1,15,5.1,16.3z"/>
</svg>
