<?xml version="1.0" encoding="utf-8"?>
<!-- Generated by IcoMoon.io -->
<!DOCTYPE svg PUBLIC "-//W3C//DTD SVG 1.1//EN" "http://www.w3.org/Graphics/SVG/1.1/DTD/svg11.dtd">
<svg version="1.1" xmlns="http://www.w3.org/2000/svg" xmlns:xlink="http://www.w3.org/1999/xlink" width="743" height="512" viewBox="0 0 743 512"><g id="icomoon-ignore">
</g>
<path d="M659.035 227.625c41.745-3.444 70.045-22.421 80.954-48.169-15.063 9.249-61.803 19.332-87.61 9.728-1.271-6.061-2.676-11.826-4.063-17.028-19.687-72.217-87.024-130.403-157.589-123.383 5.707-2.304 11.503-4.451 17.276-6.375 7.755-2.783 53.339-10.198 46.163-26.285-6.062-14.146-61.729 10.694-72.209 13.94 13.841-5.203 36.724-14.155 39.176-30.059-21.207 2.907-42.017 12.932-58.096 27.508 5.805-6.252 10.207-13.866 11.149-22.066-56.567 36.121-89.6 108.948-116.323 179.604-21-20.339-39.597-36.361-56.287-45.254-46.823-25.113-102.805-51.308-190.695-83.935-2.692 29.076 14.386 67.741 63.579 93.448-10.661-1.429-30.142 1.759-45.742 5.492 6.358 33.313 27.078 60.755 83.242 74.025-25.658 1.693-38.921 7.531-50.935 20.117 11.677 23.164 40.192 50.432 91.483 44.833-57.013 24.584-23.238 70.111 23.164 63.315-79.17 81.779-203.99 75.776-275.671 7.382 187.144 255.001 593.937 150.809 654.551-94.811 45.419 0.388 72.126-15.732 88.675-33.503-26.162 4.443-64.082-0.149-84.191-8.523z" fill="#000000"></path>
</svg>
