<?xml version="1.0" encoding="utf-8"?>
<!-- Generator: Adobe Illustrator 21.1.0, SVG Export Plug-In . SVG Version: 6.00 Build 0)  -->
<svg version="1.1" id="Layer_1" xmlns="http://www.w3.org/2000/svg" xmlns:xlink="http://www.w3.org/1999/xlink" x="0px" y="0px"
	 viewBox="0 0 500 500" style="enable-background:new 0 0 500 500;" xml:space="preserve">
<style type="text/css">
	.st0{clip-path:url(#SVGID_2_);}
	.st1{fill:#363636;}
	.st2{fill:#FDFCF9;}
	.st3{fill:#FCCC05;}
</style>
<g>
	<defs>
		<rect id="SVGID_1_" x="0" y="0" width="500" height="500"/>
	</defs>
	<clipPath id="SVGID_2_">
		<use xlink:href="#SVGID_1_"  style="overflow:visible;"/>
	</clipPath>
	<g class="st0">
		<g>
			<path class="st1" d="M505.2,83.3c0,140.6,0,281.2,0,421.9c-160.6,0-321.2-0.3-481.8,0.4C7.9,505.7,4.7,502.5,4.8,487
				C5.5,352.4,5.2,217.9,5.2,83.3c26.2-8.8,53.2-1.5,79.6-4.6c21.4-2.4,28.6,6.6,25.4,26.5c-3.5,21.4,5,28.3,26.8,28
				c78.8-1.1,157.7-1.1,236.5,0c21.8,0.3,29.4-6.5,27.2-28.1c-0.9-9.5-6.4-25.9,11.9-25.7C443.4,79.9,474.7,74.5,505.2,83.3z
				 M111.9,302.8c26.6,12,269.2,9.8,286.9-2.6C371.3,287.3,130.7,289.6,111.9,302.8z M398.6,360.1c-27.1-19-268.7-16.8-291.6,0
				C207.4,360.1,303,360.1,398.6,360.1z M393.3,256c-0.2-19.1-12.8-16.4-23.6-16.4c-76.4,0-152.7,0-229.1,0c-4.3,0-8.7-0.1-13,0.3
				c-6.4,0.6-12.7,2.9-12.1,10.5c0.6,7.3,7.8,5.5,12.4,5.5C216.3,256,304.8,256,393.3,256z M257.9,187.5c-41.6,0-83.2,0-124.8,0
				c-7,0-16.6-0.7-17,7.5c-0.4,8.4,9.2,8.2,16.1,8.2c81.4,0,162.9,0.1,244.3-0.1c6.2,0,15.7,2.6,14.6-8.7c-1-10.9-10.6-6.5-16.4-6.6
				C335.9,187.3,296.9,187.5,257.9,187.5z M255.2,416.7c39,0,78,0.2,117.1-0.2c7-0.1,17.9,3.9,18.8-7.6c1.1-13-10.7-8.5-17.2-8.6
				c-79.8-0.3-159.5-0.2-239.3-0.2c-7.7,0-19-0.6-18.6,8.6c0.3,8.6,11.6,7.9,19.5,7.9C175.5,416.6,215.4,416.7,255.2,416.7z"/>
			<path class="st2" d="M505.2,83.3c-30.5-8.9-61.8-3.4-92.6-3.8c-18.3-0.2-12.9,16.2-11.9,25.7c2.2,21.5-5.4,28.4-27.2,28.1
				c-78.8-1.1-157.7-1.1-236.5,0c-21.8,0.3-30.3-6.6-26.8-28c3.2-19.8-4-28.9-25.4-26.5c-26.4,3-53.5-4.2-79.6,4.6
				c0-22.6,0.6-45.2-0.3-67.7C4.6,6.5,6.6,4.9,15.6,4.9c159.7,0.4,319.4,0.4,479.2,0c9,0,11.1,1.6,10.7,10.7
				C504.6,38.2,505.2,60.8,505.2,83.3z M255.1,115.4c32,0,64-1.1,96,0.4c20.6,0.9,22.5-9.9,21.6-25.6c-0.8-14.3,3.6-32.3-20.8-28.3
				c-18.8,3-31.3-5.7-44.6-17.5c-28.7-25.5-75.5-25.9-103.8,0c-14.2,13-27.9,20.2-47.3,17.6c-20.8-2.8-18.6,12.6-18.2,25.5
				c0.3,13-4.6,28.9,18.6,28.3C189.4,114.7,222.2,115.4,255.1,115.4z"/>
			<path class="st2" d="M111.9,302.8c18.8-13.3,259.4-15.5,286.9-2.6C381.1,312.6,138.6,314.8,111.9,302.8z"/>
			<path class="st2" d="M398.6,360.1c-95.6,0-191.2,0-291.6,0C129.9,343.4,371.5,341.1,398.6,360.1z"/>
			<path class="st2" d="M393.3,256c-88.6,0-177,0-265.4-0.1c-4.5,0-11.7,1.8-12.4-5.5c-0.6-7.6,5.7-9.9,12.1-10.5
				c4.3-0.4,8.7-0.3,13-0.3c76.4,0,152.7,0,229.1,0C380.5,239.6,393.1,236.9,393.3,256z"/>
			<path class="st2" d="M257.9,187.5c39,0,78-0.2,117,0.2c5.8,0.1,15.3-4.3,16.4,6.6c1.1,11.3-8.4,8.7-14.6,8.7
				c-81.4,0.2-162.9,0.1-244.3,0.1c-6.9,0-16.5,0.2-16.1-8.2c0.3-8.2,10-7.5,17-7.5C174.7,187.5,216.3,187.5,257.9,187.5z"/>
			<path class="st2" d="M255.2,416.7c-39.9,0-79.8,0-119.7,0c-7.9,0-19.2,0.6-19.5-7.9c-0.4-9.2,10.9-8.6,18.6-8.6
				c79.8,0,159.5-0.1,239.3,0.2c6.5,0,18.2-4.4,17.2,8.6c-0.9,11.5-11.9,7.5-18.8,7.6C333.3,416.9,294.3,416.7,255.2,416.7z"/>
			<path class="st3" d="M255.1,115.4c-32.9,0-65.7-0.7-98.6,0.2c-23.1,0.7-18.2-15.3-18.6-28.3c-0.3-12.9-2.5-28.3,18.2-25.5
				c19.3,2.6,33-4.6,47.3-17.6c28.3-25.9,75-25.5,103.8,0c13.3,11.8,25.9,20.5,44.6,17.5c24.4-3.9,20,14.1,20.8,28.3
				c0.9,15.7-1,26.5-21.6,25.6C319.1,114.4,287.1,115.4,255.1,115.4z"/>
		</g>
	</g>
</g>
</svg>
