<?xml version="1.0" encoding="utf-8"?>
<!-- Generator: Adobe Illustrator 21.1.0, SVG Export Plug-In . SVG Version: 6.00 Build 0)  -->
<svg version="1.1" id="Layer_1" xmlns="http://www.w3.org/2000/svg" xmlns:xlink="http://www.w3.org/1999/xlink" x="0px" y="0px"
	 viewBox="0 0 500 500" style="enable-background:new 0 0 500 500;" xml:space="preserve">
<style type="text/css">
	.st0{fill:#FDFDFB;}
	.st1{fill:#FCCC06;}
	.st2{fill:#383838;}
</style>
<g>
	<g>
		<path class="st0" d="M267.7,5.1c74.7,0,149.3,0.3,224-0.3C502.8,4.7,504.9,7,504.9,18c-0.5,159.6-0.5,319.2,0,478.8
			c0,11.1-2.1,13.2-13.2,13.2c-156.2-0.5-312.4-0.5-468.6,0c-11.1,0-13.2-2.1-13.2-13.2c0.5-159.6,0.5-319.2,0-478.8
			C9.9,7,12.1,4.7,23.2,4.8c74.7,0.6,149.3,0.3,224,0.3c-3.4,3.8-7.7,7-10,11.4c-17.5,31.8-40.8,39.6-75.6,25.7
			c-21.7-8.6-33.6,2.6-33.1,27.9c0.5,28.5-5.6,47.4-37.5,56C58.5,134.9,54.1,150,75,177c18.1,23.3,15.9,40.1-1.2,62.3
			c-20.6,27-16.2,40.4,17.3,50.1c28,8.1,37.1,23.4,37.3,51.1c0.3,35.1,9.7,42.1,42.7,30.8c26.7-9.2,44-4.9,60.2,19.4
			c19,28.6,32.8,28.7,52.7,0.4c16.3-23.2,32.9-29.4,60-20c33.5,11.6,40.8,5.5,43-30.1c1.5-23.4,4.1-41.3,32.9-48.8
			c37-9.6,41.3-23.9,18.1-55.4c-15.8-21.6-16.4-38.9,1.3-57.9c2.3-2.5,3.9-5.7,5.8-8.5c12.5-18.7,7.4-32.2-12.5-40.9
			c-7.1-3.1-14.2-6.7-21.6-8.1c-19-3.6-24.4-16.1-24.1-33.3c0.1-6.8-0.2-13.7-0.7-20.5c-1.9-23-12.6-33.7-33.3-25.1
			c-34.8,14.4-58.1,5.7-75.7-25.6C274.7,12.5,270.9,9,267.7,5.1z M69.2,503.6c16.4-7.3,46,6.1,65-17.7
			c20.3-25.4,39.4-51.7,59.1-77.6c4.1-5.4,8.8-10.1,2.6-17.8c-5.5-6.8-10.2-8.6-19.4-7c-48.8,8.6-62.6-1.7-67.2-49.6
			c-0.9-9-3.7-13.3-11.9-16.8c-10.9-4.7-13.7,3.7-18,9.2c-11.6,14.8-20.9,32-34.5,44.6c-32.2,30-31.7,64.5-21.9,103.3
			C28.7,496.4,39.1,507.1,69.2,503.6z M445.7,503.6c28.6,3.9,39.6-6.3,46.2-29.9c11.2-40.5,7.4-74.8-23.7-105.3
			c-12.1-11.8-20.7-27.2-31.4-40.5c-4.8-6-7.4-15.5-19.9-10.8c-10.7,4-11.3,10.9-11.1,19.8c0.3,20.2-6.3,37.3-25.4,46.7
			c-13.9,6.8-28.5,4.2-42.5-0.1c-9.1-2.8-14,0.4-19.3,7.3c-6,7.9-0.6,12.5,3.4,17.7c11.8,15.7,25.6,30.3,35.1,47.3
			C378,493.2,409.5,507.5,445.7,503.6z"/>
		<path class="st1" d="M267.7,5.1c3.2,3.9,7,7.4,9.4,11.6c17.7,31.3,40.9,40,75.7,25.6c20.8-8.6,31.4,2.1,33.3,25.1
			c0.6,6.8,0.9,13.7,0.7,20.5c-0.3,17.2,5,29.7,24.1,33.3c7.5,1.4,14.6,5,21.6,8.1c19.9,8.7,25.1,22.1,12.5,40.9
			c-1.9,2.8-3.5,6-5.8,8.5c-17.7,19-17.1,36.3-1.3,57.9c23.1,31.5,18.9,45.8-18.1,55.4c-28.8,7.5-31.4,25.4-32.9,48.8
			c-2.2,35.6-9.5,41.7-43,30.1c-27.2-9.4-43.7-3.2-60,20c-19.9,28.3-33.7,28.2-52.7-0.4c-16.2-24.3-33.5-28.5-60.2-19.4
			c-33,11.3-42.5,4.4-42.7-30.8c-0.2-27.6-9.3-43-37.3-51.1c-33.4-9.7-37.9-23.1-17.3-50.1C90.9,217,93,200.3,75,177
			c-20.9-26.9-16.5-42.1,15.9-50.9c31.9-8.6,38.1-27.5,37.5-56c-0.5-25.3,11.4-36.5,33.1-27.9c34.8,13.8,58.2,6.1,75.6-25.7
			c2.4-4.3,6.6-7.6,10-11.4C254,5.1,260.9,5.1,267.7,5.1z M144.2,206.6c0,62.4,50.4,112.7,112.9,112.6
			c61.5-0.1,113.3-52.2,112.8-113.5c-0.5-60.6-54.2-112.9-114.9-112C194.5,94.6,144.2,145.9,144.2,206.6z"/>
		<path class="st2" d="M69.2,503.6c-30.1,3.5-40.5-7.2-46.1-29.5c-9.9-38.8-10.3-73.3,21.9-103.3c13.6-12.6,22.9-29.8,34.5-44.6
			c4.3-5.5,7.1-13.9,18-9.2c8.2,3.6,11,7.9,11.9,16.8c4.6,48,18.4,58.3,67.2,49.6c9.2-1.6,13.9,0.2,19.4,7
			c6.2,7.7,1.5,12.3-2.6,17.8c-19.7,25.9-38.8,52.2-59.1,77.6C115.2,509.6,85.6,496.3,69.2,503.6z"/>
		<path class="st2" d="M445.7,503.6c-36.2,3.9-67.7-10.4-88.6-47.7c-9.5-17-23.3-31.6-35.1-47.3c-4-5.3-9.4-9.8-3.4-17.7
			c5.3-6.9,10.2-10.1,19.3-7.3c14,4.3,28.7,7,42.5,0.1c19.1-9.4,25.6-26.5,25.4-46.7c-0.1-9,0.4-15.8,11.1-19.8
			c12.4-4.7,15,4.8,19.9,10.8c10.8,13.3,19.3,28.6,31.4,40.5c31.1,30.4,34.9,64.8,23.7,105.3C485.3,497.3,474.3,507.5,445.7,503.6z"
			/>
		<path class="st0" d="M144.2,206.6c0-60.7,50.3-112,110.7-112.9c60.7-0.9,114.4,51.4,114.9,112c0.5,61.3-51.3,113.4-112.8,113.5
			C194.6,319.3,144.2,268.9,144.2,206.6z M224.5,145.3c-1.7,0.4-3.5,0.4-4.9,1.1c-18.7,9.7-29.8,25.7-33.2,45.9
			c-3.6,21.5-1.8,42.9,15.5,59.2c6.2,5.9,14,6.4,20.9,0.6c6.3-5.2,10.6-12.1,5.9-20.1c-12.7-21.6-10-40.2,8.7-57
			c6.4-5.8,6.5-13.8,2.2-21.1C236.3,148.4,230.7,146.1,224.5,145.3z"/>
		<path class="st1" d="M224.5,145.3c6.2,0.8,11.8,3.2,15,8.6c4.3,7.3,4.2,15.3-2.2,21.1c-18.7,16.8-21.4,35.4-8.7,57
			c4.7,8,0.4,14.9-5.9,20.1c-6.9,5.8-14.7,5.3-20.9-0.6c-17.3-16.4-19.1-37.7-15.5-59.2c3.4-20.2,14.5-36.2,33.2-45.9
			C221,145.7,222.9,145.6,224.5,145.3z"/>
	</g>
</g>
</svg>
