<?xml version="1.0" encoding="utf-8"?>
<!-- Generator: Adobe Illustrator 18.1.1, SVG Export Plug-In . SVG Version: 6.00 Build 0)  -->
<svg version="1.1" id="Mode_Isolation" xmlns="http://www.w3.org/2000/svg" xmlns:xlink="http://www.w3.org/1999/xlink" x="0px"
	 y="0px" viewBox="0 0 137.7 160.2" enable-background="new 0 0 137.7 160.2" xml:space="preserve">
<g>
	<path d="M62.9,0c13.3,22.4,20.6,42.5,22.2,47.3c0-0.1,0-0.2,0-0.2C81.8,12.6,62.9,0,62.9,0z"/>
	<path d="M129.5,3.6c-6.8,14.4-19.3,17.1-19.3,17.1c-12.5,3.2-16.9,8-16.9,8c-12.5,12.6-2.7,27.9-2.7,27.9c27.1-6.2,37-28.4,37-28.4
		c-1.2,15-33.4,32.6-33.4,32.6C104.8,71.3,115,70,121.7,66c8.9-5.3,13.2-16.9,13.2-16.9C143.6,23.3,129.5,3.6,129.5,3.6z"/>
	<path d="M95.4,85.2c2.3,5.5,3.4,11.4,3.4,17.8c0,7.9-1.9,15.4-5.7,22.2c-3.8,6.9-8.9,12.2-15.4,15.9c-6.5,3.7-13.5,5.6-21.3,5.6
		c0,0-0.1,0-0.1,0c0.1,0,0.3,0,0.4,0c0,0,53-33.5,28.7-98.4c0,0-0.1-0.4-0.4-1.1c0.3,4.3,5.2,82.8-36.2,98.9
		c-4.8-0.8-9.4-2.5-13.7-5c-6.5-3.7-11.6-9-15.4-15.9c-3.8-6.9-5.7-14.3-5.7-22.2c0-12.3,4.2-22.8,12.5-31.5
		c8.3-8.7,18.3-13,29.9-13c5.5,0,10.7,1,15.4,3c0.5-5,2.2-9.7,4.2-13.5c-6-2.2-12.6-3.3-19.6-3.3c-16.7,0-30.6,6.2-41.6,18.5
		C5,74.3,0,87.5,0,102.7c0,15.4,5.3,28.8,15.8,40.3c10.5,11.5,24.1,17.2,40.7,17.2c16.5,0,30.1-5.7,40.6-17.2
		c10.5-11.5,15.8-24.9,15.8-40.3c0-8.2-1.5-15.8-4.3-22.9C103.8,82.8,99.2,84.4,95.4,85.2z"/>
</g>
</svg>
