<?xml version="1.0" encoding="utf-8"?>
<svg version="1.1" id="Layer_1" xmlns="http://www.w3.org/2000/svg" xmlns:xlink="http://www.w3.org/1999/xlink" x="0px" y="0px"
	 viewBox="0 0 282.3 322" enable-background="new 0 0 282.3 322" xml:space="preserve">
<path d="M282.3,160.1c-8.3,1.9-16.3,2.8-23.5,2.8c-40.6,0-71.9-28.4-71.9-77.7c0-24.2,9.3-36.8,22.6-36.8c12.6,0,21,11.3,21,34.2
	c0,13-3.5,27.3-6.1,35.7c0,0,12.5,21.8,46.8,15.1c7.3-16.1,11.2-37,11.2-55.4c0-49.3-25.2-78-71.3-78c-47.4,0-75.1,36.4-75.1,84.5
	c0,47.6,22.2,88.5,58.9,107.1c-15.4,30.9-35.1,58-55.5,78.5c-37.1-44.9-70.7-104.8-84.5-221.7H0C25.3,243.1,100.8,305.1,120.7,317
	c11.3,6.8,21,6.4,31.3,0.6c16.2-9.2,64.8-57.8,91.8-114.8c11.3,0,24.9-1.3,38.5-4.4V160.1z"/>
</svg>
