<?xml version="1.0" encoding="utf-8"?>
<!-- Generator: Adobe Illustrator 18.1.1, SVG Export Plug-In . SVG Version: 6.00 Build 0)  -->
<svg version="1.1" id="Icons" xmlns="http://www.w3.org/2000/svg" xmlns:xlink="http://www.w3.org/1999/xlink" x="0px" y="0px"
	 viewBox="0 0 75 90" enable-background="new 0 0 75 90" xml:space="preserve">
<path id="YouTube" d="M63.4,65.8h-4.9l0-2.9c0-1.3,1-2.3,2.3-2.3h0.3c1.3,0,2.3,1,2.3,2.3L63.4,65.8z M44.9,59.7
	c-1.3,0-2.3,0.8-2.3,1.9v14c0,1,1,1.9,2.3,1.9c1.3,0,2.3-0.8,2.3-1.9v-14C47.2,60.5,46.2,59.7,44.9,59.7z M75,51.9v26.5
	C75,84.8,69.5,90,62.7,90H12.3C5.5,90,0,84.8,0,78.4V51.9c0-6.4,5.5-11.6,12.3-11.6h50.5C69.5,40.3,75,45.5,75,51.9z M15.6,81.3
	l0-28l6.3,0v-4.1l-16.7,0v4.1l5.2,0v28H15.6z M34.4,57.5h-5.2v14.9c0,2.2,0.1,3.2,0,3.6c-0.4,1.2-2.3,2.4-3.1,0.1
	c-0.1-0.4,0-1.6,0-3.6l0-15h-5.2l0,14.8c0,2.3-0.1,4,0,4.7c0.1,1.4,0.1,2.9,1.3,3.8c2.3,1.7,6.8-0.3,8-2.7l0,3.1l4.2,0V57.5z
	 M51.1,74.6l0-12.4c0-4.7-3.5-7.6-8.4-3.7l0-9.2l-5.2,0l0,31.9l4.3-0.1l0.4-2C47.6,84.1,51.1,80.6,51.1,74.6z M67.4,73l-3.9,0
	c0,0.2,0,0.3,0,0.5v2.2c0,1.2-1,2.1-2.1,2.1h-0.8c-1.2,0-2.1-1-2.1-2.1v-0.2V73V70h9v-3.4c0-2.5-0.1-4.9-0.3-6.3
	c-0.6-4.5-6.9-5.2-10.1-2.9c-1,0.7-1.7,1.7-2.2,2.9c-0.4,1.3-0.7,3-0.7,5.3V73C54.2,85.3,69.2,83.6,67.4,73z M47.3,32.7
	c0.3,0.7,0.7,1.2,1.3,1.6c0.6,0.4,1.3,0.6,2.1,0.6c0.8,0,1.4-0.2,2-0.6c0.6-0.4,1.1-1,1.5-1.9l-0.1,2h5.8V9.7h-4.6V29
	c0,1-0.9,1.9-1.9,1.9c-1,0-1.9-0.9-1.9-1.9V9.7h-4.8v16.7c0,2.1,0,3.5,0.1,4.3C46.9,31.4,47.1,32.1,47.3,32.7z M29.7,18.8
	c0-2.4,0.2-4.2,0.6-5.6c0.4-1.3,1.1-2.4,2.1-3.2c1-0.8,2.3-1.2,3.9-1.2c1.3,0,2.5,0.3,3.5,0.8c1,0.5,1.7,1.2,2.2,2
	c0.5,0.8,0.9,1.7,1.1,2.6c0.2,0.9,0.3,2.2,0.3,4v6.3c0,2.3-0.1,4-0.3,5.1c-0.2,1.1-0.6,2.1-1.1,3c-0.6,0.9-1.3,1.6-2.2,2.1
	c-0.9,0.4-2,0.7-3.2,0.7c-1.3,0-2.4-0.2-3.4-0.6c-0.9-0.4-1.6-1-2.1-1.7c-0.5-0.8-0.9-1.7-1.1-2.8c-0.2-1.1-0.3-2.7-0.3-4.9V18.8z
	 M34.3,28.6c0,1.4,1,2.5,2.3,2.5c1.3,0,2.3-1.1,2.3-2.5V15.4c0-1.4-1-2.5-2.3-2.5c-1.3,0-2.3,1.1-2.3,2.5V28.6z M18.2,35.2h5.5l0-19
	L30.2,0h-6l-3.4,12.1L17.2,0h-5.9l6.9,16.3L18.2,35.2z"/>
</svg>
